<mxfile host="app.diagrams.net" modified="2023-06-13T15:46:14.379Z" agent="Mozilla/5.0 (X11; Ubuntu; Linux x86_64; rv:109.0) Gecko/20100101 Firefox/114.0" etag="pJBM3VQYvKFGf_O7aMcd" version="21.3.8" type="device">
  <diagram name="Page-1" id="3BpqlVfRN5b4ZFn1IMV0">
    <mxGraphModel dx="1902" dy="634" grid="1" gridSize="10" guides="1" tooltips="1" connect="1" arrows="1" fold="1" page="1" pageScale="1" pageWidth="850" pageHeight="1100" math="0" shadow="0">
      <root>
        <mxCell id="0" />
        <mxCell id="1" parent="0" />
        <mxCell id="_OkbO5Nbb0AAd7USTny_-1" value="&lt;div style=&quot;font-size: 14px;&quot;&gt;&lt;font style=&quot;font-size: 14px;&quot;&gt;count_nxt = count&lt;/font&gt;&lt;/div&gt;&lt;div style=&quot;font-size: 14px;&quot;&gt;&lt;font style=&quot;font-size: 14px;&quot;&gt;if (clear)&lt;/font&gt;&lt;/div&gt;&lt;div style=&quot;font-size: 14px;&quot;&gt;&lt;font style=&quot;font-size: 14px;&quot;&gt;count = 0;&lt;/font&gt;&lt;/div&gt;&lt;div style=&quot;font-size: 14px;&quot;&gt;&lt;font style=&quot;font-size: 14px;&quot;&gt;else &lt;br&gt;&lt;/font&gt;&lt;/div&gt;&lt;div style=&quot;font-size: 14px;&quot;&gt;&lt;font style=&quot;font-size: 14px;&quot;&gt;if (ena)&lt;/font&gt;&lt;/div&gt;&lt;div style=&quot;font-size: 14px;&quot;&gt;&lt;font style=&quot;font-size: 14px;&quot;&gt;if (count &amp;gt;= max &amp;amp; wrap)&lt;/font&gt;&lt;/div&gt;&lt;div style=&quot;font-size: 14px;&quot;&gt;&lt;font style=&quot;font-size: 14px;&quot;&gt;count_nxt = 0&lt;/font&gt;&lt;/div&gt;&lt;div style=&quot;font-size: 14px;&quot;&gt;&lt;font style=&quot;font-size: 14px;&quot;&gt;else if(count &amp;lt; max&amp;nbsp; )&lt;br&gt;&lt;/font&gt;&lt;/div&gt;&lt;div style=&quot;font-size: 14px;&quot;&gt;&lt;font style=&quot;font-size: 14px;&quot;&gt;count_nxt = count +1&lt;/font&gt;&lt;/div&gt;&lt;div style=&quot;font-size: 14px;&quot;&gt;&lt;font style=&quot;font-size: 14px;&quot;&gt;&lt;br&gt;&lt;/font&gt;&lt;/div&gt;&lt;div style=&quot;font-size: 14px;&quot;&gt;&lt;font style=&quot;font-size: 14px;&quot;&gt;&lt;br&gt;&lt;/font&gt;&lt;/div&gt;" style="whiteSpace=wrap;html=1;aspect=fixed;fontSize=16;" vertex="1" parent="1">
          <mxGeometry x="-210" y="134.5" width="185.5" height="185.5" as="geometry" />
        </mxCell>
        <mxCell id="_OkbO5Nbb0AAd7USTny_-2" value="" style="endArrow=classic;html=1;rounded=0;fontSize=12;startSize=8;endSize=8;curved=1;exitX=1;exitY=0.5;exitDx=0;exitDy=0;" edge="1" parent="1" source="_OkbO5Nbb0AAd7USTny_-1">
          <mxGeometry width="50" height="50" relative="1" as="geometry">
            <mxPoint x="59" y="350" as="sourcePoint" />
            <mxPoint x="57" y="226" as="targetPoint" />
          </mxGeometry>
        </mxCell>
        <mxCell id="_OkbO5Nbb0AAd7USTny_-3" value="" style="rounded=0;whiteSpace=wrap;html=1;" vertex="1" parent="1">
          <mxGeometry x="57" y="163" width="70" height="130" as="geometry" />
        </mxCell>
        <mxCell id="_OkbO5Nbb0AAd7USTny_-4" value="" style="triangle;whiteSpace=wrap;html=1;" vertex="1" parent="1">
          <mxGeometry x="57" y="263" width="10" height="20" as="geometry" />
        </mxCell>
        <mxCell id="_OkbO5Nbb0AAd7USTny_-5" value="" style="ellipse;whiteSpace=wrap;html=1;aspect=fixed;" vertex="1" parent="1">
          <mxGeometry x="67" y="293" width="10" height="10" as="geometry" />
        </mxCell>
        <mxCell id="_OkbO5Nbb0AAd7USTny_-6" value="&lt;font color=&quot;#000000&quot;&gt;Q&lt;/font&gt;" style="text;html=1;align=center;verticalAlign=middle;resizable=0;points=[];autosize=1;fontSize=12;fontColor=#007FFF;" vertex="1" parent="1">
          <mxGeometry x="104" y="198" width="30" height="30" as="geometry" />
        </mxCell>
        <mxCell id="_OkbO5Nbb0AAd7USTny_-7" value="" style="endArrow=classic;html=1;rounded=0;fontSize=12;startSize=8;endSize=8;curved=1;" edge="1" parent="1">
          <mxGeometry width="50" height="50" relative="1" as="geometry">
            <mxPoint x="126" y="229" as="sourcePoint" />
            <mxPoint x="211" y="229" as="targetPoint" />
          </mxGeometry>
        </mxCell>
        <mxCell id="_OkbO5Nbb0AAd7USTny_-8" value="Clk" style="text;html=1;align=center;verticalAlign=middle;resizable=0;points=[];autosize=1;strokeColor=none;fillColor=none;fontSize=16;" vertex="1" parent="1">
          <mxGeometry x="54" y="311" width="41" height="31" as="geometry" />
        </mxCell>
        <mxCell id="_OkbO5Nbb0AAd7USTny_-9" style="edgeStyle=none;curved=1;rounded=0;orthogonalLoop=1;jettySize=auto;html=1;fontSize=12;startSize=8;endSize=8;" edge="1" parent="1">
          <mxGeometry relative="1" as="geometry">
            <mxPoint x="466" y="69" as="targetPoint" />
            <mxPoint x="165" y="69" as="sourcePoint" />
          </mxGeometry>
        </mxCell>
        <mxCell id="_OkbO5Nbb0AAd7USTny_-10" style="edgeStyle=none;curved=1;rounded=0;orthogonalLoop=1;jettySize=auto;html=1;exitX=1;exitY=0.25;exitDx=0;exitDy=0;fontSize=12;startSize=8;endSize=8;" edge="1" parent="1" source="_OkbO5Nbb0AAd7USTny_-11">
          <mxGeometry relative="1" as="geometry">
            <mxPoint x="478" y="194" as="targetPoint" />
          </mxGeometry>
        </mxCell>
        <mxCell id="_OkbO5Nbb0AAd7USTny_-11" value="&lt;div&gt;if (count =max)&lt;/div&gt;&lt;div&gt;at_max = 1;&lt;/div&gt;&lt;div&gt;else&lt;/div&gt;&lt;div&gt;at_max = 0;&lt;/div&gt;&lt;div&gt;&lt;br&gt;&lt;/div&gt;" style="whiteSpace=wrap;html=1;aspect=fixed;fontSize=16;" vertex="1" parent="1">
          <mxGeometry x="209" y="148" width="182" height="182" as="geometry" />
        </mxCell>
        <mxCell id="_OkbO5Nbb0AAd7USTny_-12" value="" style="endArrow=none;html=1;rounded=0;fontSize=12;startSize=8;endSize=8;curved=1;" edge="1" parent="1">
          <mxGeometry width="50" height="50" relative="1" as="geometry">
            <mxPoint x="158" y="245" as="sourcePoint" />
            <mxPoint x="183" y="209" as="targetPoint" />
          </mxGeometry>
        </mxCell>
        <mxCell id="_OkbO5Nbb0AAd7USTny_-13" value="" style="endArrow=none;html=1;rounded=0;fontSize=12;startSize=8;endSize=8;curved=1;" edge="1" parent="1">
          <mxGeometry width="50" height="50" relative="1" as="geometry">
            <mxPoint x="2" y="245" as="sourcePoint" />
            <mxPoint x="24" y="211" as="targetPoint" />
          </mxGeometry>
        </mxCell>
        <mxCell id="_OkbO5Nbb0AAd7USTny_-14" value="" style="endArrow=none;html=1;rounded=0;fontSize=12;startSize=8;endSize=8;curved=1;entryX=0;entryY=0.25;entryDx=0;entryDy=0;" edge="1" parent="1" target="_OkbO5Nbb0AAd7USTny_-1">
          <mxGeometry width="50" height="50" relative="1" as="geometry">
            <mxPoint x="-285" y="181" as="sourcePoint" />
            <mxPoint x="-126" y="300" as="targetPoint" />
          </mxGeometry>
        </mxCell>
        <mxCell id="_OkbO5Nbb0AAd7USTny_-15" value="N(width of counter)" style="text;html=1;align=center;verticalAlign=middle;resizable=0;points=[];autosize=1;strokeColor=none;fillColor=none;fontSize=16;" vertex="1" parent="1">
          <mxGeometry x="-458" y="163" width="153" height="31" as="geometry" />
        </mxCell>
        <mxCell id="_OkbO5Nbb0AAd7USTny_-16" value="count_nxt" style="text;html=1;align=center;verticalAlign=middle;resizable=0;points=[];autosize=1;strokeColor=none;fillColor=none;fontSize=16;" vertex="1" parent="1">
          <mxGeometry x="-31" y="244" width="88" height="31" as="geometry" />
        </mxCell>
        <mxCell id="_OkbO5Nbb0AAd7USTny_-17" value="count" style="text;html=1;align=center;verticalAlign=middle;resizable=0;points=[];autosize=1;strokeColor=none;fillColor=none;fontSize=16;" vertex="1" parent="1">
          <mxGeometry x="137" y="242" width="57" height="31" as="geometry" />
        </mxCell>
        <mxCell id="_OkbO5Nbb0AAd7USTny_-18" value="N" style="text;html=1;align=center;verticalAlign=middle;resizable=0;points=[];autosize=1;strokeColor=none;fillColor=none;fontSize=16;" vertex="1" parent="1">
          <mxGeometry x="7" y="186" width="30" height="31" as="geometry" />
        </mxCell>
        <mxCell id="_OkbO5Nbb0AAd7USTny_-19" value="N" style="text;html=1;align=center;verticalAlign=middle;resizable=0;points=[];autosize=1;strokeColor=none;fillColor=none;fontSize=16;" vertex="1" parent="1">
          <mxGeometry x="169" y="172" width="30" height="31" as="geometry" />
        </mxCell>
        <mxCell id="_OkbO5Nbb0AAd7USTny_-20" style="edgeStyle=none;curved=1;rounded=0;orthogonalLoop=1;jettySize=auto;html=1;exitX=1;exitY=0.5;exitDx=0;exitDy=0;fontSize=12;startSize=8;endSize=8;" edge="1" parent="1">
          <mxGeometry relative="1" as="geometry">
            <mxPoint x="389" y="87" as="sourcePoint" />
            <mxPoint x="389" y="87" as="targetPoint" />
          </mxGeometry>
        </mxCell>
        <mxCell id="_OkbO5Nbb0AAd7USTny_-21" style="edgeStyle=none;curved=1;rounded=0;orthogonalLoop=1;jettySize=auto;html=1;exitX=1;exitY=0;exitDx=0;exitDy=0;fontSize=12;startSize=8;endSize=8;" edge="1" parent="1" source="_OkbO5Nbb0AAd7USTny_-11" target="_OkbO5Nbb0AAd7USTny_-11">
          <mxGeometry relative="1" as="geometry" />
        </mxCell>
        <mxCell id="_OkbO5Nbb0AAd7USTny_-22" style="edgeStyle=none;curved=1;rounded=0;orthogonalLoop=1;jettySize=auto;html=1;exitX=0.75;exitY=0;exitDx=0;exitDy=0;fontSize=12;startSize=8;endSize=8;" edge="1" parent="1" source="_OkbO5Nbb0AAd7USTny_-11" target="_OkbO5Nbb0AAd7USTny_-11">
          <mxGeometry relative="1" as="geometry" />
        </mxCell>
        <mxCell id="_OkbO5Nbb0AAd7USTny_-23" value="" style="endArrow=none;html=1;rounded=0;fontSize=12;startSize=8;endSize=8;curved=1;entryX=0.005;entryY=0.366;entryDx=0;entryDy=0;entryPerimeter=0;" edge="1" parent="1" target="_OkbO5Nbb0AAd7USTny_-1">
          <mxGeometry width="50" height="50" relative="1" as="geometry">
            <mxPoint x="-282" y="203" as="sourcePoint" />
            <mxPoint x="-211" y="300" as="targetPoint" />
          </mxGeometry>
        </mxCell>
        <mxCell id="_OkbO5Nbb0AAd7USTny_-24" value="ena" style="text;html=1;align=center;verticalAlign=middle;resizable=0;points=[];autosize=1;strokeColor=none;fillColor=none;fontSize=16;" vertex="1" parent="1">
          <mxGeometry x="-337" y="190" width="45" height="31" as="geometry" />
        </mxCell>
        <mxCell id="_OkbO5Nbb0AAd7USTny_-25" value="" style="endArrow=none;html=1;rounded=0;fontSize=12;startSize=8;endSize=8;curved=1;" edge="1" parent="1">
          <mxGeometry width="50" height="50" relative="1" as="geometry">
            <mxPoint x="-261" y="191" as="sourcePoint" />
            <mxPoint x="-237" y="161" as="targetPoint" />
          </mxGeometry>
        </mxCell>
        <mxCell id="_OkbO5Nbb0AAd7USTny_-26" value="" style="endArrow=none;html=1;rounded=0;fontSize=12;startSize=8;endSize=8;curved=1;" edge="1" parent="1">
          <mxGeometry width="50" height="50" relative="1" as="geometry">
            <mxPoint x="-264" y="216" as="sourcePoint" />
            <mxPoint x="-238" y="195" as="targetPoint" />
          </mxGeometry>
        </mxCell>
        <mxCell id="_OkbO5Nbb0AAd7USTny_-27" value="N" style="text;html=1;align=center;verticalAlign=middle;resizable=0;points=[];autosize=1;strokeColor=none;fillColor=none;fontSize=16;" vertex="1" parent="1">
          <mxGeometry x="-261" y="141" width="30" height="31" as="geometry" />
        </mxCell>
        <mxCell id="_OkbO5Nbb0AAd7USTny_-28" value="1" style="text;html=1;align=center;verticalAlign=middle;resizable=0;points=[];autosize=1;strokeColor=none;fillColor=none;fontSize=16;" vertex="1" parent="1">
          <mxGeometry x="-251" y="201" width="27" height="31" as="geometry" />
        </mxCell>
        <mxCell id="_OkbO5Nbb0AAd7USTny_-29" value="" style="endArrow=none;html=1;rounded=0;fontSize=12;startSize=8;endSize=8;curved=1;entryX=0;entryY=0.628;entryDx=0;entryDy=0;entryPerimeter=0;" edge="1" parent="1" target="_OkbO5Nbb0AAd7USTny_-1">
          <mxGeometry width="50" height="50" relative="1" as="geometry">
            <mxPoint x="-275" y="252" as="sourcePoint" />
            <mxPoint x="-173" y="300" as="targetPoint" />
          </mxGeometry>
        </mxCell>
        <mxCell id="_OkbO5Nbb0AAd7USTny_-30" value="Wrap" style="text;html=1;align=center;verticalAlign=middle;resizable=0;points=[];autosize=1;strokeColor=none;fillColor=none;fontSize=16;" vertex="1" parent="1">
          <mxGeometry x="-357" y="233" width="56" height="31" as="geometry" />
        </mxCell>
        <mxCell id="_OkbO5Nbb0AAd7USTny_-31" value="" style="endArrow=none;html=1;rounded=0;fontSize=12;startSize=8;endSize=8;curved=1;" edge="1" parent="1">
          <mxGeometry width="50" height="50" relative="1" as="geometry">
            <mxPoint x="-252" y="261" as="sourcePoint" />
            <mxPoint x="-233" y="242" as="targetPoint" />
          </mxGeometry>
        </mxCell>
        <mxCell id="_OkbO5Nbb0AAd7USTny_-32" value="1" style="text;html=1;align=center;verticalAlign=middle;resizable=0;points=[];autosize=1;strokeColor=none;fillColor=none;fontSize=16;" vertex="1" parent="1">
          <mxGeometry x="-251" y="252" width="27" height="31" as="geometry" />
        </mxCell>
        <mxCell id="_OkbO5Nbb0AAd7USTny_-33" value="" style="endArrow=classic;html=1;rounded=0;fontSize=12;startSize=8;endSize=8;curved=0;entryX=0.593;entryY=0.013;entryDx=0;entryDy=0;entryPerimeter=0;" edge="1" parent="1" target="_OkbO5Nbb0AAd7USTny_-1">
          <mxGeometry width="50" height="50" relative="1" as="geometry">
            <mxPoint x="164" y="228" as="sourcePoint" />
            <mxPoint x="-99" y="131" as="targetPoint" />
            <Array as="points">
              <mxPoint x="164" y="68" />
              <mxPoint x="-99" y="68" />
            </Array>
          </mxGeometry>
        </mxCell>
        <mxCell id="_OkbO5Nbb0AAd7USTny_-34" value="" style="endArrow=none;html=1;rounded=0;fontSize=12;startSize=8;endSize=8;curved=1;entryX=0.005;entryY=0.898;entryDx=0;entryDy=0;entryPerimeter=0;" edge="1" parent="1" target="_OkbO5Nbb0AAd7USTny_-1">
          <mxGeometry width="50" height="50" relative="1" as="geometry">
            <mxPoint x="-272" y="301" as="sourcePoint" />
            <mxPoint x="121" y="275" as="targetPoint" />
          </mxGeometry>
        </mxCell>
        <mxCell id="_OkbO5Nbb0AAd7USTny_-35" value="Clr" style="text;html=1;align=center;verticalAlign=middle;resizable=0;points=[];autosize=1;strokeColor=none;fillColor=none;fontSize=16;" vertex="1" parent="1">
          <mxGeometry x="-322" y="280" width="38" height="31" as="geometry" />
        </mxCell>
        <mxCell id="_OkbO5Nbb0AAd7USTny_-36" value="" style="endArrow=none;html=1;rounded=0;fontSize=12;startSize=8;endSize=8;curved=1;" edge="1" parent="1">
          <mxGeometry width="50" height="50" relative="1" as="geometry">
            <mxPoint x="-255" y="314" as="sourcePoint" />
            <mxPoint x="-244" y="290" as="targetPoint" />
          </mxGeometry>
        </mxCell>
        <mxCell id="_OkbO5Nbb0AAd7USTny_-37" value="1" style="text;html=1;align=center;verticalAlign=middle;resizable=0;points=[];autosize=1;strokeColor=none;fillColor=none;fontSize=16;" vertex="1" parent="1">
          <mxGeometry x="-254" y="303" width="27" height="31" as="geometry" />
        </mxCell>
        <mxCell id="_OkbO5Nbb0AAd7USTny_-38" value="at_max" style="text;html=1;align=center;verticalAlign=middle;resizable=0;points=[];autosize=1;strokeColor=none;fillColor=none;fontSize=16;" vertex="1" parent="1">
          <mxGeometry x="397" y="201" width="71" height="31" as="geometry" />
        </mxCell>
        <mxCell id="_OkbO5Nbb0AAd7USTny_-39" value="count " style="text;html=1;align=center;verticalAlign=middle;resizable=0;points=[];autosize=1;strokeColor=none;fillColor=none;fontSize=16;" vertex="1" parent="1">
          <mxGeometry x="391" y="62" width="57" height="31" as="geometry" />
        </mxCell>
        <mxCell id="_OkbO5Nbb0AAd7USTny_-40" value="" style="endArrow=none;html=1;rounded=0;fontSize=12;startSize=8;endSize=8;curved=1;" edge="1" parent="1">
          <mxGeometry width="50" height="50" relative="1" as="geometry">
            <mxPoint x="416" y="204" as="sourcePoint" />
            <mxPoint x="444" y="182" as="targetPoint" />
          </mxGeometry>
        </mxCell>
        <mxCell id="_OkbO5Nbb0AAd7USTny_-41" value="" style="endArrow=none;html=1;rounded=0;fontSize=12;startSize=8;endSize=8;curved=1;exitX=0.263;exitY=-0.032;exitDx=0;exitDy=0;exitPerimeter=0;" edge="1" parent="1" source="_OkbO5Nbb0AAd7USTny_-39">
          <mxGeometry width="50" height="50" relative="1" as="geometry">
            <mxPoint x="236" y="137" as="sourcePoint" />
            <mxPoint x="447" y="79" as="targetPoint" />
          </mxGeometry>
        </mxCell>
        <mxCell id="_OkbO5Nbb0AAd7USTny_-42" value="" style="endArrow=classic;html=1;rounded=0;fontSize=12;startSize=8;endSize=8;curved=0;entryX=0.5;entryY=1;entryDx=0;entryDy=0;" edge="1" parent="1" target="_OkbO5Nbb0AAd7USTny_-11">
          <mxGeometry width="50" height="50" relative="1" as="geometry">
            <mxPoint x="-309" y="356" as="sourcePoint" />
            <mxPoint x="138" y="419" as="targetPoint" />
            <Array as="points">
              <mxPoint x="302" y="356" />
            </Array>
          </mxGeometry>
        </mxCell>
        <mxCell id="_OkbO5Nbb0AAd7USTny_-43" value="" style="endArrow=classic;html=1;rounded=0;fontSize=12;startSize=8;endSize=8;curved=1;entryX=0.5;entryY=1;entryDx=0;entryDy=0;" edge="1" parent="1" target="_OkbO5Nbb0AAd7USTny_-1">
          <mxGeometry width="50" height="50" relative="1" as="geometry">
            <mxPoint x="-114" y="357" as="sourcePoint" />
            <mxPoint x="64" y="350" as="targetPoint" />
          </mxGeometry>
        </mxCell>
        <mxCell id="_OkbO5Nbb0AAd7USTny_-44" value="max" style="text;html=1;align=center;verticalAlign=middle;resizable=0;points=[];autosize=1;strokeColor=none;fillColor=none;fontSize=16;" vertex="1" parent="1">
          <mxGeometry x="-362" y="333" width="49" height="31" as="geometry" />
        </mxCell>
        <mxCell id="_OkbO5Nbb0AAd7USTny_-45" value="" style="endArrow=none;html=1;rounded=0;fontSize=12;startSize=8;endSize=8;curved=1;" edge="1" parent="1">
          <mxGeometry width="50" height="50" relative="1" as="geometry">
            <mxPoint x="-227" y="369" as="sourcePoint" />
            <mxPoint x="-212" y="344" as="targetPoint" />
          </mxGeometry>
        </mxCell>
        <mxCell id="_OkbO5Nbb0AAd7USTny_-46" value="N" style="text;html=1;align=center;verticalAlign=middle;resizable=0;points=[];autosize=1;strokeColor=none;fillColor=none;fontSize=16;" vertex="1" parent="1">
          <mxGeometry x="-236" y="368" width="30" height="31" as="geometry" />
        </mxCell>
        <mxCell id="_OkbO5Nbb0AAd7USTny_-47" value="" style="endArrow=classic;html=1;rounded=0;fontSize=12;startSize=8;endSize=8;curved=1;entryX=0.75;entryY=1;entryDx=0;entryDy=0;" edge="1" parent="1" target="_OkbO5Nbb0AAd7USTny_-3">
          <mxGeometry width="50" height="50" relative="1" as="geometry">
            <mxPoint x="110" y="397" as="sourcePoint" />
            <mxPoint x="107" y="350" as="targetPoint" />
          </mxGeometry>
        </mxCell>
        <mxCell id="_OkbO5Nbb0AAd7USTny_-48" value="nrst" style="text;html=1;align=center;verticalAlign=middle;resizable=0;points=[];autosize=1;strokeColor=none;fillColor=none;fontSize=16;" vertex="1" parent="1">
          <mxGeometry x="83" y="391" width="45" height="31" as="geometry" />
        </mxCell>
        <mxCell id="_OkbO5Nbb0AAd7USTny_-49" value="N" style="text;html=1;align=center;verticalAlign=middle;resizable=0;points=[];autosize=1;strokeColor=none;fillColor=none;fontSize=16;" vertex="1" parent="1">
          <mxGeometry x="423" y="25" width="30" height="31" as="geometry" />
        </mxCell>
        <mxCell id="_OkbO5Nbb0AAd7USTny_-50" value="1" style="text;html=1;align=center;verticalAlign=middle;resizable=0;points=[];autosize=1;strokeColor=none;fillColor=none;fontSize=16;" vertex="1" parent="1">
          <mxGeometry x="425" y="137" width="27" height="31" as="geometry" />
        </mxCell>
      </root>
    </mxGraphModel>
  </diagram>
</mxfile>
